#tb 0: 1/44100
#media_type 0: audio
#codec_id 0: pcm_s16le
#sample_rate 0: 44100
#channel_layout_name 0: 1 channels
0,          0,          0,     4096,     8192, 0x7016ba57
0,       4096,       4096,     4096,     8192, 0xab9701c1
0,       8192,       8192,     4096,     8192, 0x0776dacd
0,      12288,      12288,     4096,     8192, 0x29aefd44
0,      16384,      16384,     4096,     8192, 0x23ccf8f3
0,      20480,      20480,     4096,     8192, 0x5debfa42
0,      24576,      24576,     4096,     8192, 0xd365e9c4
0,      28672,      28672,     4096,     8192, 0x7ef5f7b4
0,      32768,      32768,     4096,     8192, 0xf229dc95
0,      36864,      36864,     4096,     8192, 0xeee3e2c4
0,      40960,      40960,     4096,     8192, 0x3110fb40
0,      45056,      45056,     4096,     8192, 0x72a4f036
0,      49152,      49152,     4096,     8192, 0x025dfac4
0,      53248,      53248,     4096,     8192, 0xa13ff290
0,      57344,      57344,     4096,     8192, 0x6ce6f277
0,      61440,      61440,     4096,     8192, 0x8f3df6ed
0,      65536,      65536,     4096,     8192, 0xbdcaeafc
0,      69632,      69632,     4096,     8192, 0xda5df33f
0,      73728,      73728,     4096,     8192, 0x3110fb40
0,      77824,      77824,     4096,     8192, 0x72a4f036
